<?xml version="1.0" encoding="UTF-8" standalone="no"?>
<!-- Creator: CorelDRAW 2021.5 (Evaluation Version) -->

<svg
   xml:space="preserve"
   width="3000"
   height="5000"
   version="1.1"
   style="clip-rule:evenodd;fill-rule:evenodd;image-rendering:optimizeQuality;shape-rendering:geometricPrecision;text-rendering:geometricPrecision"
   viewBox="0 0 3000 5000"
   id="svg1254"
   sodipodi:docname="mouth_4.svg"
   inkscape:version="1.2.1 (9c6d41e410, 2022-07-14)"
   xmlns:inkscape="http://www.inkscape.org/namespaces/inkscape"
   xmlns:sodipodi="http://sodipodi.sourceforge.net/DTD/sodipodi-0.dtd"
   xmlns="http://www.w3.org/2000/svg"
   xmlns:svg="http://www.w3.org/2000/svg"><sodipodi:namedview
   id="namedview1256"
   pagecolor="#505050"
   bordercolor="#eeeeee"
   borderopacity="1"
   inkscape:showpageshadow="0"
   inkscape:pageopacity="0"
   inkscape:pagecheckerboard="0"
   inkscape:deskcolor="#505050"
   showgrid="false"
   inkscape:zoom="0.13792742"
   inkscape:cx="1950.3011"
   inkscape:cy="1392.0365"
   inkscape:window-width="1920"
   inkscape:window-height="1009"
   inkscape:window-x="-8"
   inkscape:window-y="-8"
   inkscape:window-maximized="1"
   inkscape:current-layer="Layer_x0020_1" />
 <defs
   id="defs1246">
  <style
   type="text/css"
   id="style1244">
   <![CDATA[
    .str0 {stroke:#A10000;stroke-width:41.67;stroke-miterlimit:2.61313}
    .fil0 {fill:#E60000}
   ]]>
  </style>
 </defs>
 <g
   id="Layer_x0020_1"
   inkscape:label="Layer 1"
   inkscape:groupmode="layer"
   transform="translate(-3463.965,-2995.8496)">
  <metadata
   id="CorelCorpID_0Corel-Layer" />
  <path
   class="fil0 str0"
   d="m 4957.3095,3837.784 c 82.4078,1.0458 78.6196,-22.3627 145.8596,-16.2235 128.361,11.722 239.1796,98.8606 239.3093,142.5083 -80.1542,10.3373 -166.5288,-2.4878 -391.0315,-17.0145 -222.3033,15.2976 -321.5112,24.0494 -378.1711,4.9536 0,-48.8948 95.8162,-118.054 244.9781,-132.4982 58.102,-5.6248 71.7399,17.421 139.054,18.2743 z"
   id="path1249" />
  <path
   class="fil0 str0"
   d="m 5342.4802,3964.0688 c 0,62.7503 -137.241,171.8367 -376.9197,171.8367 -239.6788,0 -392.2831,-121.1474 -392.2831,-183.8976 37.119,19.3268 207.5776,7.6318 378.1712,-4.9536 165.8391,9.9695 335.7632,28.6538 391.0316,17.0145 z"
   id="path1251" />
 </g>
</svg>
