<?xml version="1.0" encoding="UTF-8" standalone="no"?>
<!-- Creator: CorelDRAW 2021.5 (Evaluation Version) -->

<svg
   xml:space="preserve"
   width="3000"
   height="5000"
   version="1.1"
   style="clip-rule:evenodd;fill-rule:evenodd;image-rendering:optimizeQuality;shape-rendering:geometricPrecision;text-rendering:geometricPrecision"
   viewBox="0 0 31250 52083.334"
   id="svg1381"
   sodipodi:docname="nose_2.svg"
   inkscape:version="1.2.1 (9c6d41e410, 2022-07-14)"
   xmlns:inkscape="http://www.inkscape.org/namespaces/inkscape"
   xmlns:sodipodi="http://sodipodi.sourceforge.net/DTD/sodipodi-0.dtd"
   xmlns="http://www.w3.org/2000/svg"
   xmlns:svg="http://www.w3.org/2000/svg"><sodipodi:namedview
   id="namedview1383"
   pagecolor="#505050"
   bordercolor="#eeeeee"
   borderopacity="1"
   inkscape:showpageshadow="0"
   inkscape:pageopacity="0"
   inkscape:pagecheckerboard="0"
   inkscape:deskcolor="#505050"
   inkscape:document-units="in"
   showgrid="false"
   inkscape:zoom="0.25398285"
   inkscape:cx="1397.7322"
   inkscape:cy="878.01204"
   inkscape:window-width="1920"
   inkscape:window-height="1009"
   inkscape:window-x="-8"
   inkscape:window-y="-8"
   inkscape:window-maximized="1"
   inkscape:current-layer="Layer_x0020_1" />
 <defs
   id="defs1371">
  <style
   type="text/css"
   id="style1369">
   <![CDATA[
    .str0 {stroke:#4F2A04;stroke-width:41.67;stroke-miterlimit:2.61313}
    .fil1 {fill:#4F2A04}
    .fil0 {fill:#784008}
   ]]>
  </style>
 </defs>
 <g
   id="Layer_x0020_1"
   inkscape:label="Layer 1"
   inkscape:groupmode="layer"
   transform="translate(-2421.895,-3258.7805)">
  <metadata
   id="CorelCorpID_0Corel-Layer" />
  <path
   class="fil0 str0"
   d="m 17845.143,8946.2791 c 2038.661,0 3787.545,150.2201 3787.545,1469.3529 0,662.135 -1356.001,595.765 -2028.574,1028.382 -667.359,429.257 -647.378,1360.117 -1662.748,1360.117 -1026.986,0 -1037.109,-902.429 -1706.25,-1340.389 -659.175,-431.438 -1985.073,-393.497 -1985.073,-1048.122 0,-1319.1327 1556.439,-1469.353 3595.1,-1469.353 z"
   id="path1374" />
  <path
   class="fil1"
   d="m 16660.776,11080.778 c 428.427,252.412 330.027,742.397 176.521,1055.909 -223.406,-312.044 -235.021,-349.588 -544.826,-633.139 -367.437,-210.526 -432.726,-232.312 -773.633,-331.821 139.567,-236.896 713.498,-343.376 1141.925,-90.962 z"
   id="path1376"
   style="stroke-width:1.20369" />
  <path
   class="fil1"
   d="m 19172.834,11074.722 c -428.428,252.414 -330.028,742.397 -176.521,1055.91 241.219,-304.124 205.313,-387.202 544.826,-633.14 337.729,-244.178 432.725,-232.31 773.632,-331.819 -139.567,-236.898 -713.497,-343.376 -1141.925,-90.962 z"
   id="path1378"
   style="stroke-width:1.20369" />
 </g>
</svg>
