<?xml version="1.0" encoding="UTF-8" standalone="no"?>
<!-- Creator: CorelDRAW 2021.5 (Evaluation Version) -->

<svg
   xml:space="preserve"
   width="3000"
   height="5000"
   version="1.1"
   style="clip-rule:evenodd;fill-rule:evenodd;image-rendering:optimizeQuality;shape-rendering:geometricPrecision;text-rendering:geometricPrecision"
   viewBox="0 0 3000 5000"
   id="svg878"
   sodipodi:docname="eye_3.svg"
   inkscape:version="1.2.1 (9c6d41e410, 2022-07-14)"
   xmlns:inkscape="http://www.inkscape.org/namespaces/inkscape"
   xmlns:sodipodi="http://sodipodi.sourceforge.net/DTD/sodipodi-0.dtd"
   xmlns="http://www.w3.org/2000/svg"
   xmlns:svg="http://www.w3.org/2000/svg"><sodipodi:namedview
   id="namedview880"
   pagecolor="#505050"
   bordercolor="#eeeeee"
   borderopacity="1"
   inkscape:showpageshadow="0"
   inkscape:pageopacity="0"
   inkscape:pagecheckerboard="0"
   inkscape:deskcolor="#505050"
   showgrid="false"
   inkscape:zoom="0.13792742"
   inkscape:cx="2204.0578"
   inkscape:cy="2341.8114"
   inkscape:window-width="1920"
   inkscape:window-height="1009"
   inkscape:window-x="-8"
   inkscape:window-y="-8"
   inkscape:window-maximized="1"
   inkscape:current-layer="Layer_x0020_1" />
 <defs
   id="defs844">
  <style
   type="text/css"
   id="style842">
   <![CDATA[
    .str6 {stroke:#0027D4;stroke-width:41.67;stroke-miterlimit:2.61313}
    .str5 {stroke:#00CFD6;stroke-width:41.67;stroke-miterlimit:2.61313}
    .str1 {stroke:#20D604;stroke-width:41.67;stroke-miterlimit:2.61313}
    .str4 {stroke:#9F00D4;stroke-width:41.67;stroke-miterlimit:2.61313}
    .str7 {stroke:#D40000;stroke-width:41.67;stroke-miterlimit:2.61313}
    .str3 {stroke:#D67200;stroke-width:41.67;stroke-miterlimit:2.61313}
    .str2 {stroke:#E6D300;stroke-width:41.67;stroke-miterlimit:2.61313}
    .str0 {stroke:black;stroke-width:6.94;stroke-miterlimit:2.61313}
    .fil0 {fill:none}
    .fil8 {fill:black}
    .fil5 {fill:#8FFBFF}
    .fil6 {fill:#99ACFF}
    .fil1 {fill:#A2FF94}
    .fil4 {fill:#E494FF}
    .fil7 {fill:#FF7A7A}
    .fil3 {fill:#FFC88A}
    .fil2 {fill:#FFF58A}
   ]]>
  </style>
 </defs>
 <g
   id="Layer_x0020_1"
   inkscape:label="Layer 1"
   inkscape:groupmode="layer"
   transform="translate(-2804.865,-1916.9844)">
  <metadata
   id="CorelCorpID_0Corel-Layer" />
  <polygon
   class="fil0 str0"
   points="6054.78,5132.38 5599.45,5374.89 5144.11,5132.38 4688.78,4889.88 4688.78,4404.88 4688.78,3919.88 5144.11,3677.38 5599.45,3434.87 6054.78,3677.38 6510.12,3919.88 6510.12,4404.88 6510.12,4889.88 "
   id="polygon847"
   transform="matrix(0.13225401,0,0,0.13225401,3564.94,1670.7056)" />
  <polygon
   class="fil1 str1"
   points="5134.1,6623.09 4678.76,6865.6 4223.43,6623.09 3768.09,6380.59 3768.09,5895.59 3768.09,5410.59 4223.43,5168.09 4678.76,4925.59 5134.1,5168.09 5589.44,5410.59 5589.44,5895.59 5589.44,6380.59 "
   id="polygon849"
   transform="matrix(0.13225401,0,0,0.13225401,3564.94,1670.7056)" />
  <polygon
   class="fil2 str2"
   points="6992.52,6617.32 6537.18,6859.82 6081.85,6617.32 5626.51,6374.82 5626.51,5889.82 5626.51,5404.81 6081.85,5162.31 6537.18,4919.81 6992.52,5162.31 7447.85,5404.81 7447.85,5889.82 7447.85,6374.82 "
   id="polygon851"
   transform="matrix(0.13225401,0,0,0.13225401,3564.94,1670.7056)" />
  <polygon
   class="fil3 str3"
   points="7918.97,5122.38 7463.64,5364.89 7008.3,5122.38 6552.96,4879.88 6552.96,4394.88 6552.96,3909.88 7008.3,3667.38 7463.64,3424.87 7918.97,3667.38 8374.31,3909.88 8374.31,4394.88 8374.31,4879.88 "
   id="polygon853"
   transform="matrix(0.13225401,0,0,0.13225401,3564.94,1670.7056)" />
  <polygon
   class="fil4 str4"
   points="6054.78,5132.38 5599.45,5374.89 5144.11,5132.38 4688.78,4889.88 4688.78,4404.88 4688.78,3919.88 5144.11,3677.38 5599.45,3434.87 6054.78,3677.38 6510.12,3919.88 6510.12,4404.88 6510.12,4889.88 "
   id="polygon855"
   transform="matrix(0.13225401,0,0,0.13225401,3564.94,1670.7056)" />
  <polygon
   class="fil5 str5"
   points="4191.7,5147.5 3736.37,5390 3281.04,5147.5 2825.7,4905 2825.7,4420 2825.7,3934.99 3281.04,3692.49 3736.37,3449.99 4191.7,3692.49 4647.04,3934.99 4647.04,4420 4647.04,4905 "
   id="polygon857"
   transform="matrix(0.13225401,0,0,0.13225401,3564.94,1670.7056)" />
  <polygon
   class="fil6 str6"
   points="5117.85,3650.84 4662.52,3893.35 4207.18,3650.84 3751.85,3408.34 3751.85,2923.34 3751.85,2438.34 4207.18,2195.84 4662.52,1953.34 5117.85,2195.84 5573.19,2438.34 5573.19,2923.34 5573.19,3408.34 "
   id="polygon859"
   transform="matrix(0.13225401,0,0,0.13225401,3564.94,1670.7056)" />
  <polygon
   class="fil7 str7"
   points="6976.19,3638.1 6520.85,3880.6 6065.52,3638.1 5610.18,3395.6 5610.18,2910.59 5610.18,2425.59 6065.52,2183.09 6520.85,1940.59 6976.19,2183.09 7431.52,2425.59 7431.52,2910.59 7431.52,3395.6 "
   id="polygon861"
   transform="matrix(0.13225401,0,0,0.13225401,3564.94,1670.7056)" />
  <polygon
   class="fil8 str0"
   points="4461.84,3107.78 4337.04,3181.51 4212.24,3107.78 4087.43,3034.05 4087.43,2886.59 4087.43,2739.13 4212.24,2665.4 4337.04,2591.67 4461.84,2665.4 4586.65,2739.13 4586.65,2886.59 4586.65,3034.05 "
   id="polygon863"
   transform="matrix(0.13225401,0,0,0.13225401,3564.94,1670.7056)" />
  <polygon
   class="fil8 str0"
   points="6860.88,2870.17 6736.07,2943.91 6611.27,2870.17 6486.47,2796.44 6486.47,2648.98 6486.47,2501.52 6611.27,2427.8 6736.07,2354.06 6860.88,2427.8 6985.68,2501.52 6985.68,2648.98 6985.68,2796.44 "
   id="polygon865"
   transform="matrix(0.13225401,0,0,0.13225401,3564.94,1670.7056)" />
  <polygon
   class="fil8 str0"
   points="4155.26,4794 4030.45,4867.74 3905.65,4794 3780.85,4720.28 3780.85,4572.81 3780.85,4425.35 3905.65,4351.63 4030.45,4277.89 4155.26,4351.63 4280.06,4425.35 4280.06,4572.81 4280.06,4720.28 "
   id="polygon867"
   transform="matrix(0.13225401,0,0,0.13225401,3564.94,1670.7056)" />
  <polygon
   class="fil8 str0"
   points="5734.18,4594.72 5609.37,4668.46 5484.57,4594.72 5359.77,4521 5359.77,4373.54 5359.77,4226.07 5484.57,4152.35 5609.37,4078.61 5734.18,4152.35 5858.98,4226.07 5858.98,4373.54 5858.98,4521 "
   id="polygon869"
   transform="matrix(0.13225401,0,0,0.13225401,3564.94,1670.7056)" />
  <polygon
   class="fil8 str0"
   points="7205.79,4357.12 7080.99,4430.85 6956.19,4357.12 6831.38,4283.39 6831.38,4135.93 6831.38,3988.47 6956.19,3914.74 7080.99,3841.01 7205.79,3914.74 7330.59,3988.47 7330.59,4135.93 7330.59,4283.39 "
   id="polygon871"
   transform="matrix(0.13225401,0,0,0.13225401,3564.94,1670.7056)" />
  <polygon
   class="fil8 str0"
   points="6347.35,6250.29 6222.55,6324.02 6097.74,6250.29 5972.94,6176.56 5972.94,6029.1 5972.94,5881.64 6097.74,5807.91 6222.55,5734.18 6347.35,5807.91 6472.15,5881.64 6472.15,6029.1 6472.15,6176.56 "
   id="polygon873"
   transform="matrix(0.13225401,0,0,0.13225401,3564.94,1670.7056)" />
  <polygon
   class="fil8 str0"
   points="4760.76,6510.89 4635.96,6584.62 4511.16,6510.89 4386.35,6437.16 4386.35,6289.7 4386.35,6142.24 4511.16,6068.51 4635.96,5994.78 4760.76,6068.51 4885.57,6142.24 4885.57,6289.7 4885.57,6437.16 "
   id="polygon875"
   transform="matrix(0.13225401,0,0,0.13225401,3564.94,1670.7056)" />
 </g>
</svg>
