<?xml version="1.0" encoding="UTF-8" standalone="no"?>
<!-- Creator: CorelDRAW 2021.5 (Evaluation Version) -->

<svg
   xml:space="preserve"
   width="3000"
   height="5000"
   version="1.1"
   style="clip-rule:evenodd;fill-rule:evenodd;image-rendering:optimizeQuality;shape-rendering:geometricPrecision;text-rendering:geometricPrecision"
   viewBox="0 0 3000 5000"
   id="svg150"
   sodipodi:docname="body_1.svg"
   inkscape:version="1.2.1 (9c6d41e410, 2022-07-14)"
   xmlns:inkscape="http://www.inkscape.org/namespaces/inkscape"
   xmlns:sodipodi="http://sodipodi.sourceforge.net/DTD/sodipodi-0.dtd"
   xmlns="http://www.w3.org/2000/svg"
   xmlns:svg="http://www.w3.org/2000/svg"><sodipodi:namedview
   id="namedview152"
   pagecolor="#505050"
   bordercolor="#eeeeee"
   borderopacity="1"
   inkscape:showpageshadow="0"
   inkscape:pageopacity="0"
   inkscape:pagecheckerboard="0"
   inkscape:deskcolor="#505050"
   showgrid="false"
   inkscape:zoom="0.097529412"
   inkscape:cx="2112.1833"
   inkscape:cy="2911.9421"
   inkscape:window-width="1920"
   inkscape:window-height="1009"
   inkscape:window-x="-8"
   inkscape:window-y="-8"
   inkscape:window-maximized="1"
   inkscape:current-layer="Layer_x0020_1" />
 <defs
   id="defs80">
  <style
   type="text/css"
   id="style78">
   <![CDATA[
    .str0 {stroke:#025E1C;stroke-width:41.67;stroke-miterlimit:2.61313}
    .fil1 {fill:none}
    .fil2 {fill:#007321}
    .fil0 {fill:#025E1C}
    .fil3 {fill:#2FA14F}
   ]]>
  </style>
 </defs>
 <g
   id="Layer_x0020_1"
   inkscape:label="Layer 1"
   inkscape:groupmode="layer"
   transform="translate(-3386.41,-1348.605)">
  <metadata
   id="CorelCorpID_0Corel-Layer" />
  <g
   id="_3121664273840"
   transform="matrix(0.93468399,0,0,0.93468399,319.9335,88.085501)">
   <path
   class="fil0"
   d="m 4133.15,3829.56 c -34.14,-20.11 -416.71,156.67 -450.56,281.89 -83.33,308.33 286.38,539.72 349.93,752.85 -110.59,-25.16 -130.05,-52.09 -225.5,-115.32 -367.09,-243.16 -577.68,-718.75 -160.51,-1027.15 204.81,-151.4 291.96,-247.74 548.74,-246.89 97.92,17.15 163.4,110.43 146.26,208.35 -17.15,97.92 -110.43,163.41 -208.35,146.26 z"
   id="path83" />
  </g>
  <path
   class="fil1"
   d="m 4212.1352,3501.7944 c -131.7156,-23.068 -290.5465,119.3592 -413.8407,189.0118 -313.0256,176.8422 -113.8538,595.7115 89.4213,760.1785 8.1037,6.5615 185.6936,167.1496 201.3496,183.6841"
   id="path86"
   style="stroke-width:0.934684" />
  <g
   id="_3121664272736"
   transform="matrix(0.93468399,0,0,0.93468399,319.9335,88.085501)">
   <path
   class="fil0"
   d="m 3881,4718.92 c 9.89,29.61 39.26,155.93 26.04,180.35 -12.29,0.07 -7.08,1.44 -15.95,-2.53 l 0.45,0.7 c -85.11,-77.88 -45.01,-61.82 -94.95,-124.91 -14.8,-23.31 -7.91,-54.21 15.4,-69.01 23.31,-14.81 54.21,-7.91 69.01,15.4 z"
   id="path88" />
  </g>
  <path
   class="fil1"
   d="m 3907.9984,4523.834 c 24.928,39.2287 11.5807,67.2692 58.8103,135.202 l 4.9819,8.3094"
   id="path91"
   style="stroke-width:0.934684" />
  <g
   id="_3121664271536"
   transform="matrix(0.93468399,0,0,0.93468399,319.9335,88.085501)">
   <path
   class="fil0"
   d="m 3899.26,4665.73 c 32.52,11.43 171.18,99.5 185.64,127.51 -47.94,44.44 -134.53,-23.63 -202.89,-29.01 -27.2,-4.76 -45.39,-30.68 -40.63,-57.87 4.76,-27.2 30.68,-45.39 57.87,-40.63 z"
   id="path93" />
  </g>
  <path
   class="fil1"
   d="m 3956.4524,4495.1018 c 80.8221,14.1511 68.045,53.2676 169.0189,70.9519 4.1874,0.729 8.3654,1.4674 12.5528,2.1965"
   id="path96"
   style="stroke-width:0.934684" />
  <g
   id="_3121664271248"
   transform="matrix(0.93468399,0,0,0.93468399,319.9335,88.085501)">
   <path
   class="fil0"
   d="m 5578.74,3858.39 c 33.97,-20.4 418.02,153.14 452.93,278.07 85.93,307.61 -281.81,542.12 -343.54,755.78 110.37,-26.09 129.6,-53.19 224.52,-117.22 365.02,-246.25 571.57,-723.61 151.81,-1028.46 -206.08,-149.66 -294.05,-245.27 -550.81,-242.24 -97.77,17.98 -162.46,111.81 -144.49,209.58 17.98,97.77 111.81,162.46 209.58,144.49 z"
   id="path98" />
  </g>
  <path
   class="fil1"
   d="m 5503.8685,3528.9937 c 131.51,-24.1802 291.5466,116.8916 415.4296,185.5068 314.5118,174.197 118.8918,594.7301 -82.9812,760.9075 -8.0476,6.6269 -184.273,168.7198 -199.7887,185.3852"
   id="path101"
   style="stroke-width:0.934684" />
  <g
   id="_3121664271584"
   transform="matrix(0.93468399,0,0,0.93468399,319.9335,88.085501)">
   <path
   class="fil0"
   d="m 5831.77,4772.1 c -9.65,29.7 -37.94,156.26 -24.52,180.57 12.28,-0.04 7.09,1.38 15.93,-2.66 l -0.44,0.7 c 84.44,-78.6 44.48,-62.2 93.89,-125.71 14.61,-23.43 7.45,-54.28 -15.98,-68.88 -23.43,-14.61 -54.27,-7.45 -68.88,15.98 z"
   id="path103" />
  </g>
  <path
   class="fil1"
   d="m 5810.4542,4573.2227 c -24.5916,39.4343 -11.0106,67.3627 -57.6607,135.6881 l -4.9164,8.356"
   id="path106"
   style="stroke-width:0.934684" />
  <g
   id="_3121664271728"
   transform="matrix(0.93468399,0,0,0.93468399,319.9335,88.085501)">
   <path
   class="fil0"
   d="m 5813.06,4719.07 c -32.42,11.7 -170.33,100.94 -184.56,129.08 48.32,44.04 134.32,-24.77 202.64,-30.73 27.16,-4.99 45.13,-31.06 40.13,-58.22 -4.99,-27.16 -31.06,-45.13 -58.22,-40.13 z"
   id="path108" />
  </g>
  <path
   class="fil1"
   d="m 5761.7571,4544.8924 c -80.6912,14.8335 -67.5963,53.8472 -168.4207,72.382 -4.178,0.7664 -8.356,1.5328 -12.5341,2.2993"
   id="path111"
   style="stroke-width:0.934684" />
  <g
   id="_3121664269376"
   transform="matrix(0.93468399,0,0,0.93468399,319.9335,88.085501)">
   <path
   class="fil0"
   d="m 4165.2,6164.35 c -122.44,-53.01 -240.04,-105.09 -367.75,-109.5 44,64.28 104.8,133.24 136.43,165.25 l -2.41,5.44 c 321.1,123.13 66.61,575.94 -545.06,342.96 l 105.05,-40.02 c 56.52,-15.05 304.56,-36.19 367.91,-105.96 -158.52,-82.42 -426.06,-317.13 -380.69,-502.15 69.43,-283.17 664.66,-119.3 822.32,-67.73 86.07,37.5 125.45,137.68 87.95,223.75 -37.5,86.07 -137.68,125.45 -223.75,87.95 z m -296,244.16 c 1.89,-3.77 3.29,-7.67 4.11,-11.69 l -1.72,0.01 c -2.18,3.98 -2.8,7.89 -2.39,11.68 z"
   id="path113" />
  </g>
  <path
   class="fil1"
   d="m 4276.5536,5704.1342 c -149.9794,-65.3437 -401.3159,-137.2209 -565.9885,-67.4748 -81.8035,34.6487 187.3387,351.4973 262.2536,368.1814 111.1153,24.7504 84.9908,222.7258 -291.2755,222.7258 -65.4653,0 -130.9212,0 -196.3771,0"
   id="path116"
   style="stroke-width:0.934684" />
  <g
   id="_3121664267648"
   transform="matrix(0.93468399,0,0,0.93468399,319.9335,88.085501)">
   <path
   class="fil0"
   d="m 3557.94,6634.19 c -24.15,-5.32 -69.87,11.18 -119.4,9.81 14.89,-76.44 45.52,-93.18 116.93,-119.78 30.37,-0.68 55.54,23.38 56.22,53.75 0.68,30.37 -23.38,55.54 -53.75,56.22 z"
   id="path118" />
  </g>
  <path
   class="fil1"
   d="m 3644.324,6237.5584 c -28.1153,0.6262 -90.0568,38.4249 -110.4516,60.5675"
   id="path121"
   style="stroke-width:0.934684" />
  <g
   id="_3121664269280"
   transform="matrix(0.93468399,0,0,0.93468399,319.9335,88.085501)">
   <path
   class="fil0"
   d="m 3635.13,6653.97 c -53.53,30.93 -23.89,19.44 -89.86,31.96 -12.34,-70.92 -15.22,-38.49 1.62,-97.64 18.14,-24.37 52.59,-29.42 76.96,-11.28 24.37,18.14 29.42,52.59 11.28,76.96 z"
   id="path123" />
  </g>
  <path
   class="fil1"
   d="m 3676.3931,6276.7497 c -9.0384,12.1415 -38.9764,45.9023 -42.7525,60.5675"
   id="path126"
   style="stroke-width:0.934684" />
  <g
   id="_3121664266064"
   transform="matrix(0.93468399,0,0,0.93468399,319.9335,88.085501)">
   <path
   class="fil0"
   d="m 5631.28,6164.35 c 122.44,-53.01 240.04,-105.09 367.75,-109.5 -44,64.28 -104.8,133.24 -136.43,165.25 l 2.41,5.44 c -321.1,123.13 -66.61,575.94 545.06,342.96 l -105.05,-40.02 c -56.52,-15.05 -304.56,-36.19 -367.91,-105.96 158.52,-82.42 426.06,-317.13 380.69,-502.15 -69.43,-283.17 -664.66,-119.3 -822.32,-67.73 -86.07,37.5 -125.45,137.68 -87.95,223.75 37.5,86.07 137.68,125.45 223.75,87.95 z m 296,244.16 c -1.89,-3.77 -3.29,-7.67 -4.11,-11.69 l 1.72,0.01 c 2.18,3.98 2.8,7.89 2.39,11.68 z"
   id="path128" />
  </g>
  <path
   class="fil1"
   d="m 5519.9264,5704.1342 c 149.9794,-65.3437 401.3159,-137.2209 565.9885,-67.4748 81.8035,34.6487 -187.3387,351.4973 -262.2536,368.1814 -111.1153,24.7504 -84.9908,222.7258 291.2755,222.7258 65.4653,0 130.9212,0 196.3771,0"
   id="path131"
   style="stroke-width:0.934684" />
  <g
   id="_3121664266400"
   transform="matrix(0.93468399,0,0,0.93468399,319.9335,88.085501)">
   <path
   class="fil0"
   d="m 6238.54,6634.19 c 24.15,-5.32 69.87,11.18 119.4,9.81 -14.89,-76.44 -45.52,-93.18 -116.93,-119.78 -30.37,-0.68 -55.54,23.38 -56.22,53.75 -0.68,30.37 23.38,55.54 53.75,56.22 z"
   id="path133" />
  </g>
  <path
   class="fil1"
   d="m 6152.156,6237.5584 c 28.1153,0.6262 90.0568,38.4249 110.4516,60.5675"
   id="path136"
   style="stroke-width:0.934684" />
  <g
   id="_3121664264816"
   transform="matrix(0.93468399,0,0,0.93468399,319.9335,88.085501)">
   <path
   class="fil0"
   d="m 6161.35,6653.97 c 53.53,30.93 23.89,19.44 89.86,31.96 12.34,-70.92 15.22,-38.49 -1.62,-97.64 -18.14,-24.37 -52.59,-29.42 -76.96,-11.28 -24.37,18.14 -29.42,52.59 -11.28,76.96 z"
   id="path138" />
  </g>
  <path
   class="fil1"
   d="m 6120.0869,6276.7497 c 9.0384,12.1415 38.9764,45.9023 42.7525,60.5675"
   id="path141"
   style="stroke-width:0.934684" />
  <path
   class="fil2 str0"
   d="m 4872.5175,2997.252 c 236.877,0 550.5289,201.0786 713.949,382.9214 147.1193,293.8646 -18.8526,704.4993 -18.8526,1180.2535 0,409.8122 141.7542,848.5996 38.6679,1097.7676 -33.5925,81.196 11.8331,164.925 -95.7023,204.593 -170.1872,62.7827 -447.6856,104.5631 -638.062,104.5631 -163.8127,0 -393.5674,-52.8096 -574.6344,-105.7408 -108.5261,-31.7232 -128.3414,-147.1753 -166.3176,-238.522 -108.1056,-260.0104 75.915,-667.1961 75.915,-1097.8798 0,-419.1497 -119.92,-899.2782 -18.8526,-1180.2535 168.0188,-216.0709 408.0737,-347.7212 683.8802,-347.7212 z"
   id="path143" />
  <path
   class="fil3"
   d="m 4902.7452,3549.8372 c 113.3678,0 292.5374,47.4072 363.1434,254.636 62.1284,182.3755 22.7689,507.2156 22.7689,772.8434 0,299.0428 40.2755,639.9688 -36.3031,827.7281 -68.7367,168.5329 -248.7942,199.7513 -349.6092,199.7513 -101.5628,0 -276.7132,-32.7606 -345.6088,-203.5274 -75.6907,-187.5911 -40.2942,-526.9001 -40.2942,-823.9613 0,-265.2727 -50.4916,-584.299 11.4873,-766.5905 70.606,-207.6587 260.9263,-260.8889 374.425,-260.8889 z"
   id="path145"
   style="stroke-width:0.934684" />
  <path
   class="fil2 str0"
   d="m 4853.7117,1368.0791 c 328.0927,0 501.542,69.5966 692.1802,296.8931 143.1562,170.6826 347.9828,463.4256 347.9828,699.4053 0,285.8544 -212.3882,456.9016 -413.7191,638.5761 -186.1984,168.0375 -350.4224,357.7223 -626.4439,357.7223 -251.8506,0 -396.1004,-172.4399 -576.0551,-315.0914 -230.5211,-182.74 -464.108,-372.1911 -464.108,-681.207 0,-275.8346 165.8129,-558.0063 354.8995,-738.4004 188.1145,-179.4593 398.7736,-257.898 685.2636,-257.898 z"
   id="path147" />
 </g>
</svg>
